# Blender v2.91.2 OBJ File: ''
# www.blender.org
mtllib obstacle.mtl
o Cube.001_Cube.002
v -4.000000 -0.843536 0.442129
v -4.000000 0.843536 0.442128
v -4.000000 -0.843536 -0.442128
v -4.000000 0.843536 -0.442129
v 4.000000 -0.843536 0.442129
v 4.000000 0.843536 0.442128
v 4.000000 -0.843536 -0.442128
v 4.000000 0.843536 -0.442129
v 3.111111 -0.843536 -0.442128
v 2.222222 -0.843536 -0.442128
v 1.333333 -0.843536 -0.442128
v 0.444444 -0.843536 -0.442128
v -0.444445 -0.843536 -0.442128
v -1.333333 -0.843536 -0.442128
v -2.222222 -0.843536 -0.442128
v -3.111111 -0.843536 -0.442128
v -3.111111 0.843536 -0.442129
v -2.222222 0.843536 -0.442129
v -1.333333 0.843536 -0.442129
v -0.444444 0.843536 -0.442129
v 0.444445 0.843536 -0.442129
v 1.333333 0.843536 -0.442129
v 2.222222 0.843536 -0.442129
v 3.111111 0.843536 -0.442129
v -3.111111 -0.843536 0.442129
v -2.222222 -0.843536 0.442129
v -1.333333 -0.843536 0.442129
v -0.444444 -0.843536 0.442129
v 0.444445 -0.843536 0.442129
v 1.333333 -0.843536 0.442129
v 2.222222 -0.843536 0.442129
v 3.111111 -0.843536 0.442129
v 3.111111 0.843536 0.442128
v 2.222222 0.843536 0.442128
v 1.333333 0.843536 0.442128
v 0.444444 0.843536 0.442128
v -0.444445 0.843536 0.442128
v -1.333333 0.843536 0.442128
v -2.222222 0.843536 0.442128
v -3.111111 0.843536 0.442128
v -3.745236 -1.694335 -0.188692
v -3.745236 -1.694335 0.188693
v -3.365875 -1.694335 -0.188692
v 3.742222 -1.694335 0.185694
v 3.742222 -1.694335 -0.185694
v 3.368889 -1.694335 0.185694
v 3.368889 -1.694335 -0.185694
v -3.365875 -1.694335 0.188693
vt 0.375000 0.000000
vt 0.625000 0.000000
vt 0.625000 0.250000
vt 0.375000 0.250000
vt 0.375000 0.472222
vt 0.625000 0.472222
vt 0.625000 0.500000
vt 0.375000 0.500000
vt 0.625000 0.750000
vt 0.375000 0.750000
vt 0.375000 0.972222
vt 0.625000 0.972222
vt 0.625000 1.000000
vt 0.375000 1.000000
vt 0.375000 0.777778
vt 0.375000 0.777778
vt 0.375000 0.750000
vt 0.847222 0.500000
vt 0.875000 0.500000
vt 0.875000 0.750000
vt 0.847222 0.750000
vt 0.652778 0.500000
vt 0.652778 0.750000
vt 0.680556 0.500000
vt 0.708333 0.500000
vt 0.708333 0.750000
vt 0.680556 0.750000
vt 0.736111 0.500000
vt 0.763889 0.500000
vt 0.763889 0.750000
vt 0.736111 0.750000
vt 0.791667 0.500000
vt 0.819444 0.500000
vt 0.819444 0.750000
vt 0.791667 0.750000
vt 0.375000 0.500000
vt 0.375000 0.472222
vt 0.180556 0.500000
vt 0.208333 0.500000
vt 0.208333 0.750000
vt 0.180556 0.750000
vt 0.236111 0.500000
vt 0.263889 0.500000
vt 0.263889 0.750000
vt 0.236111 0.750000
vt 0.291667 0.500000
vt 0.319444 0.500000
vt 0.319444 0.750000
vt 0.291667 0.750000
vt 0.625000 0.777778
vt 0.375000 0.805556
vt 0.625000 0.805556
vt 0.625000 0.833333
vt 0.375000 0.833333
vt 0.375000 0.861111
vt 0.625000 0.861111
vt 0.625000 0.888889
vt 0.375000 0.888889
vt 0.375000 0.916667
vt 0.625000 0.916667
vt 0.625000 0.944444
vt 0.375000 0.944444
vt 0.625000 0.277778
vt 0.375000 0.277778
vt 0.375000 0.305556
vt 0.625000 0.305556
vt 0.625000 0.333333
vt 0.375000 0.333333
vt 0.375000 0.361111
vt 0.625000 0.361111
vt 0.625000 0.388889
vt 0.375000 0.388889
vt 0.375000 0.416667
vt 0.625000 0.416667
vt 0.625000 0.444444
vt 0.375000 0.444444
vt 0.347222 0.500000
vt 0.347222 0.750000
vt 0.125000 0.500000
vt 0.152778 0.500000
vt 0.152778 0.750000
vt 0.125000 0.750000
vt 0.152778 0.500000
vt 0.152778 0.750000
vt 0.375000 1.000000
vt 0.375000 0.972222
vt 0.347222 0.750000
vt 0.347222 0.500000
vt 0.375000 0.277778
vt 0.375000 0.250000
vt 0.375000 0.000000
vn -1.0000 0.0000 0.0000
vn 0.0000 -0.0000 -1.0000
vn 1.0000 0.0000 0.0000
vn 0.0000 0.0000 1.0000
vn 0.0000 -0.2886 0.9575
vn 0.0000 1.0000 -0.0000
vn 0.0000 -0.2886 -0.9575
vn 0.0000 -1.0000 0.0000
vn 0.9580 -0.2869 0.0000
vn 0.0000 -0.2855 0.9584
vn -0.9570 -0.2900 0.0000
vn 0.0000 -0.2855 -0.9584
vn -0.9580 -0.2869 0.0000
vn 0.9570 -0.2900 0.0000
usemtl Gray
s 1
f 1/1/1 2/2/1 4/3/1 3/4/1
f 9/5/2 24/6/2 8/7/2 7/8/2
f 7/8/3 8/7/3 6/9/3 5/10/3
f 25/11/4 40/12/4 2/13/4 1/14/4
f 5/10/5 32/15/5 46/16/5 44/17/5
f 17/18/6 4/19/6 2/20/6 40/21/6
f 8/7/6 24/22/6 33/23/6 6/9/6
f 23/24/6 22/25/6 35/26/6 34/27/6
f 21/28/6 20/29/6 37/30/6 36/31/6
f 19/32/6 18/33/6 39/34/6 38/35/6
f 9/5/7 7/8/7 45/36/7 47/37/7
f 15/38/8 14/39/8 27/40/8 26/41/8
f 13/42/8 12/43/8 29/44/8 28/45/8
f 11/46/8 10/47/8 31/48/8 30/49/8
f 5/10/4 6/9/4 33/50/4 32/15/4
f 31/51/4 34/52/4 35/53/4 30/54/4
f 29/55/4 36/56/4 37/57/4 28/58/4
f 27/59/4 38/60/4 39/61/4 26/62/4
f 3/4/2 4/3/2 17/63/2 16/64/2
f 15/65/2 18/66/2 19/67/2 14/68/2
f 13/69/2 20/70/2 21/71/2 12/72/2
f 11/73/2 22/74/2 23/75/2 10/76/2
f 47/77/8 45/36/8 44/17/8 46/78/8
f 41/79/8 43/80/8 48/81/8 42/82/8
f 16/83/9 25/84/9 48/81/9 43/80/9
f 25/11/10 1/14/10 42/85/10 48/86/10
f 32/87/11 9/88/11 47/77/11 46/78/11
f 3/4/12 16/64/12 43/89/12 41/90/12
f 1/1/13 3/4/13 41/90/13 42/91/13
f 7/8/14 5/10/14 44/17/14 45/36/14
usemtl Blue
f 24/22/6 23/24/6 34/27/6 33/23/6
f 22/25/6 21/28/6 36/31/6 35/26/6
f 20/29/6 19/32/6 38/35/6 37/30/6
f 18/33/6 17/18/6 40/21/6 39/34/6
f 16/83/8 15/38/8 26/41/8 25/84/8
f 14/39/8 13/42/8 28/45/8 27/40/8
f 12/43/8 11/46/8 30/49/8 29/44/8
f 10/47/8 9/88/8 32/87/8 31/48/8
f 32/15/4 33/50/4 34/52/4 31/51/4
f 30/54/4 35/53/4 36/56/4 29/55/4
f 28/58/4 37/57/4 38/60/4 27/59/4
f 26/62/4 39/61/4 40/12/4 25/11/4
f 16/64/2 17/63/2 18/66/2 15/65/2
f 14/68/2 19/67/2 20/70/2 13/69/2
f 12/72/2 21/71/2 22/74/2 11/73/2
f 10/76/2 23/75/2 24/6/2 9/5/2
